<?xml version="1.0" encoding="UTF-8" standalone="no"?>
<!-- Created with Inkscape (http://www.inkscape.org/) -->

<svg
   width="126.81806mm"
   height="107.05035mm"
   viewBox="0 0 126.81806 107.05035"
   version="1.1"
   id="svg1"
   xml:space="preserve"
   inkscape:version="1.4.1 (93de688d07, 2025-03-30)"
   sodipodi:docname="sphinx-codelinks-logo_dark.svg"
   xmlns:inkscape="http://www.inkscape.org/namespaces/inkscape"
   xmlns:sodipodi="http://sodipodi.sourceforge.net/DTD/sodipodi-0.dtd"
   xmlns="http://www.w3.org/2000/svg"
   xmlns:svg="http://www.w3.org/2000/svg"><sodipodi:namedview
     id="namedview1"
     pagecolor="#ffffff"
     bordercolor="#666666"
     borderopacity="1.0"
     inkscape:showpageshadow="2"
     inkscape:pageopacity="0.0"
     inkscape:pagecheckerboard="0"
     inkscape:deskcolor="#d1d1d1"
     inkscape:document-units="mm"
     inkscape:zoom="0.73139029"
     inkscape:cx="675.42597"
     inkscape:cy="373.26172"
     inkscape:window-width="2560"
     inkscape:window-height="1412"
     inkscape:window-x="3840"
     inkscape:window-y="0"
     inkscape:window-maximized="1"
     inkscape:current-layer="layer1" /><defs
     id="defs1"><rect
       x="97.646614"
       y="587.81329"
       width="382.20282"
       height="366.4165"
       id="rect2" /></defs><g
     inkscape:label="Layer 1"
     inkscape:groupmode="layer"
     id="layer1"
     transform="translate(-44.396611,-71.422678)"><g
       id="g2"><g
         style="fill:none"
         id="g1"
         transform="matrix(1.7839495,0,0,1.7839495,63.268961,71.422678)"><path
           d="m 38.0534,20 8.928,8.8539 c 0,0 -0.0226,0.06 -0.0302,0.0899 -0.1057,0.3296 -0.1586,0.6892 -0.1586,1.0562 0,1.9925 1.624,3.603 3.6331,3.603 2.0092,0 3.6332,-1.6105 3.6332,-3.603 0,-1.9925 -1.624,-3.603 -3.6332,-3.603 -0.3701,0 -0.7326,0.0524 -1.065,0.1573 -0.0302,0.0075 -0.0604,0.0225 -0.0906,0.03 l -8.928,-8.854 V 0 H 20.1748 v 13.206 l 3.2253,-3.1985 V 3.1985 H 37.1168 V 19.0562 L 38.061,20 Z"
           fill="#e4ff3e"
           id="path1" /><path
           d="m 20.1673,22.2621 8.928,-8.854 c 0,0 0.0604,0.0225 0.0906,0.03 0.3323,0.1049 0.6949,0.1573 1.065,0.1573 2.0092,0 3.6332,-1.6105 3.6332,-3.603 0,-1.99251 -1.624,-3.603 -3.6332,-3.603 -2.0092,0 -3.6331,1.61049 -3.6331,3.603 0,0.367 0.0529,0.7266 0.1586,1.0562 0.0076,0.0299 0.0227,0.0599 0.0302,0.0899 L 18.175226,19.399147 0,19.9924 v 20 H 13.3164 L 10.0912,36.7939 H 3.22525 V 23.1909 H 19.2382 l 0.9291,-0.9363 z"
           fill="#e4ff3e"
           id="path2"
           sodipodi:nodetypes="cccsssscccccccccccc" /><path
           d="M 23.4152,40.9513 13.5279,31.146 c 0,0 0.0227,-0.0599 0.0302,-0.0899 0.1058,-0.3295 0.1587,-0.6891 0.1587,-1.0561 0,-1.9925 -1.624,-3.603 -3.6332,-3.603 -2.00914,0 -3.6331,1.6105 -3.6331,3.603 0,1.9925 1.62396,3.603 3.6331,3.603 0.3701,0 0.7327,-0.0525 1.065,-0.1573 0.0303,-0.0075 0.0605,-0.0225 0.0907,-0.03 l 8.928,8.8539 V 60.0075 H 40.3346 V 46.8015 L 37.1093,50 v 6.809 H 23.3925 V 43.206 l 0.0151,-2.2472 z"
           fill="#e4ff3e"
           id="path3" /><path
           d="m 40.3346,37.7379 -8.928,8.8539 c 0,0 -0.0604,-0.0224 -0.0907,-0.0299 -0.3323,-0.1049 -0.6949,-0.1573 -1.065,-0.1573 -2.0091,0 -3.6331,1.6105 -3.6331,3.603 0,1.9925 1.624,3.603 3.6331,3.603 2.0092,0 3.6332,-1.6105 3.6332,-3.603 0,-0.3671 -0.0529,-0.7266 -0.1587,-1.0562 -0.0075,-0.03 -0.0226,-0.0599 -0.0302,-0.0899 l 8.928,-8.8539 h 17.8862 v -20 H 47.193 l 3.2252,3.1985 h 6.8659 v 13.603 H 41.2863 l -0.9442,0.9363 z"
           fill="#e4ff3e"
           id="path4" /></g><rect
         style="fill:#ffffff;stroke:#ffffff;stroke-width:0.0906192;stroke-linecap:round"
         id="rect1"
         width="34.558296"
         height="43.24271"
         x="54.715969"
         y="101.85906" /><rect
         style="fill:#ffffff;stroke:#ffffff;stroke-width:0.0171403;stroke-linecap:round"
         id="rect1-6"
         width="7.4959712"
         height="7.13235"
         x="87.324219"
         y="123.49294" /><path
         d="m 52.291704,156.98573 1.386929,-19.17324 h -9.282022 v -7.15427 h 10.679315 l 1.447196,-17.76917 h -9.331924 v -7.21527 h 10.679315 l 1.436839,-14.161225 h 10.230185 l -1.337034,14.161225 h 8.234053 l 1.43684,-14.161225 h 10.280093 l -1.43684,14.161225 h 9.18221 v 7.21527 h -10.5296 l -1.4971,17.76917 h 7.25557 l 1.92664,7.15427 h -10.42979 l -1.43684,19.17324 H 70.90565 l 1.436831,-19.17324 h -8.333859 l -1.436831,19.17324 z m 13.064309,-26.32751 h 8.333859 l 1.347391,-17.76917 h -8.234054 z"
         id="text1"
         style="font-weight:800;font-size:125.647px;line-height:1.25;font-family:Aptos;-inkscape-font-specification:'Aptos, Ultra-Bold';text-align:center;text-anchor:middle;white-space:pre;fill:#e4ff3e;stroke-width:0.813406"
         aria-label="#"
         sodipodi:nodetypes="cccccccccccccccccccccccccccccccccc" /></g></g></svg>
